# xmcd
#
# Track frame offsets: 
#        150
#        11517
#        23712
#        33346
#        45410
#        57040
#        71701
#        84444
#        99282
#        111131
#        127007
#        137090
#        155593
#        167587
#        184124
#        196088
#        210464
#        225601
#
# Disc length: 3158 seconds
#
# Revision: 6
# Processed by: cddbd v1.5.2PL0 Copyright (c) Steve Scherf et al.
# Submitted via: ExactAudioCopy v0.99pb5
#
DISCID=e10c5412
DTITLE=Various Artist - Classic Country Gold - CD 2
DYEAR=2005
DGENRE=Country
TTITLE0=Donna Fargo - The happiest girl in the whole U.S.A.
TTITLE1=Hank Williams, Jr. - Eleven roses
TTITLE2=Tom T. Hall - I love
TTITLE3=Dolly Parton - Jolene
TTITLE4=Freddy Fender - Before the next teardrop falls
TTITLE5=Glen Campbell - Rhinestone cowboy
TTITLE6=Tanya Tucker - San Antonio stroll
TTITLE7=Waylon Jennings - Luckenbach, Texas (back to the basics of lov
TTITLE7=e)
TTITLE8=Crystal Gayle - Don't it make my brown eyes blue
TTITLE9=Kenny Rogers - The gambler
TTITLE10=Statler Brothers - Do you know you are my sunshine
TTITLE11=Don Williams - I believe in you
TTITLE12=Oak Ridge Boys - Elvira
TTITLE13=Barbara Mandrell feat. George Jones - I was country when coun
TTITLE13=try wasn't cool
TTITLE14=Gene Watson - Fourteen carat mind
TTITLE15=Lee Greenwood - God bless the U.S.A.
TTITLE16=Kathy Mattea - Eighteen wheels and a dozen roses
TTITLE17=Patty Loveless - Timber, I'm falling in love
EXTD=
EXTT0=
EXTT1=
EXTT2=
EXTT3=
EXTT4=
EXTT5=
EXTT6=
EXTT7=
EXTT8=
EXTT9=
EXTT10=
EXTT11=
EXTT12=
EXTT13=
EXTT14=
EXTT15=
EXTT16=
EXTT17=
PLAYORDER=
